<mxfile host="app.diagrams.net" modified="2023-09-20T16:24:54.000Z" agent="Mozilla/5.0 (X11; Ubuntu; Linux x86_64; rv:109.0) Gecko/20100101 Firefox/117.0" etag="7FUoMc3DXcCA1OFO4Wua" version="21.7.4" type="github">
  <diagram name="Page-1" id="ZQ3FDXs5Rn_-RE7P0p4d">
    <mxGraphModel dx="559" dy="333" grid="1" gridSize="10" guides="1" tooltips="1" connect="1" arrows="1" fold="1" page="1" pageScale="1" pageWidth="850" pageHeight="1100" math="0" shadow="0">
      <root>
        <mxCell id="0" />
        <mxCell id="1" parent="0" />
        <mxCell id="9Q8ou49gKVPKfCfj_k95-3" style="edgeStyle=orthogonalEdgeStyle;rounded=0;orthogonalLoop=1;jettySize=auto;html=1;entryX=0;entryY=0.5;entryDx=0;entryDy=0;endArrow=none;endFill=0;" edge="1" parent="1" source="9Q8ou49gKVPKfCfj_k95-1" target="9Q8ou49gKVPKfCfj_k95-2">
          <mxGeometry relative="1" as="geometry" />
        </mxCell>
        <mxCell id="9Q8ou49gKVPKfCfj_k95-1" value="ČLAN" style="whiteSpace=wrap;html=1;align=center;" vertex="1" parent="1">
          <mxGeometry x="90" y="210" width="100" height="40" as="geometry" />
        </mxCell>
        <mxCell id="9Q8ou49gKVPKfCfj_k95-2" value="KNJIGA" style="whiteSpace=wrap;html=1;align=center;" vertex="1" parent="1">
          <mxGeometry x="410" y="210" width="100" height="40" as="geometry" />
        </mxCell>
        <mxCell id="9Q8ou49gKVPKfCfj_k95-4" value="posuđuje" style="text;html=1;align=center;verticalAlign=middle;resizable=0;points=[];autosize=1;strokeColor=none;fillColor=none;" vertex="1" parent="1">
          <mxGeometry x="260" y="198" width="70" height="30" as="geometry" />
        </mxCell>
        <mxCell id="9Q8ou49gKVPKfCfj_k95-5" value="M" style="text;html=1;align=center;verticalAlign=middle;resizable=0;points=[];autosize=1;strokeColor=none;fillColor=none;" vertex="1" parent="1">
          <mxGeometry x="385" y="198" width="30" height="30" as="geometry" />
        </mxCell>
        <mxCell id="9Q8ou49gKVPKfCfj_k95-6" value="M" style="text;html=1;align=center;verticalAlign=middle;resizable=0;points=[];autosize=1;strokeColor=none;fillColor=none;" vertex="1" parent="1">
          <mxGeometry x="185" y="198" width="30" height="30" as="geometry" />
        </mxCell>
      </root>
    </mxGraphModel>
  </diagram>
</mxfile>
